<svg xmlns="http://www.w3.org/2000/svg" viewBox="0 0 240 240" width="240" height="240"><polygon points="90.6,111.0 120.0,128.0 90.6,145.0 61.1,128.0" fill="#A5B4FC"/><polygon points="61.1,128.0 90.6,145.0 90.6,179.0 61.1,162.0" fill="#6366F1"/><polygon points="120.0,128.0 120.0,162.0 90.6,179.0 90.6,145.0" fill="#4338CA"/><polygon points="149.4,111.0 178.9,128.0 149.4,145.0 120.0,128.0" fill="#A5B4FC"/><polygon points="120.0,128.0 149.4,145.0 149.4,179.0 120.0,162.0" fill="#6366F1"/><polygon points="178.9,128.0 178.9,162.0 149.4,179.0 149.4,145.0" fill="#4338CA"/><polygon points="120,60 149.4,77.0 120,94 90.6,77.0" fill="#FCD34D"/><polygon points="90.6,77.0 120,94 120,128 90.6,111.0" fill="#F59E0B"/><polygon points="149.4,77.0 149.4,111.0 120,128 120,94" fill="#B45309"/></svg>